<svg width="33" height="33" viewBox="0 0 33 33" fill="none" xmlns="http://www.w3.org/2000/svg">
<path d="M13.408 16.0897C13.408 16.8009 13.6905 17.483 14.1934 17.9859C14.6963 18.4888 15.3784 18.7713 16.0896 18.7713C16.8008 18.7713 17.4828 18.4888 17.9857 17.9859C18.4886 17.483 18.7712 16.8009 18.7712 16.0897C18.7712 15.3785 18.4886 14.6964 17.9857 14.1935C17.4828 13.6906 16.8008 13.4081 16.0896 13.4081C15.3784 13.4081 14.6963 13.6906 14.1934 14.1935C13.6905 14.6964 13.408 15.3785 13.408 16.0897ZM13.408 8.04488C13.408 8.75609 13.6905 9.43817 14.1934 9.94107C14.6963 10.444 15.3784 10.7265 16.0896 10.7265C16.8008 10.7265 17.4828 10.444 17.9857 9.94107C18.4886 9.43817 18.7712 8.75609 18.7712 8.04488C18.7712 7.33368 18.4886 6.6516 17.9857 6.1487C17.4828 5.64581 16.8008 5.36328 16.0896 5.36328C15.3784 5.36328 14.6963 5.64581 14.1934 6.1487C13.6905 6.6516 13.408 7.33368 13.408 8.04488ZM13.408 24.1345C13.408 24.8457 13.6905 25.5278 14.1934 26.0307C14.6963 26.5336 15.3784 26.8161 16.0896 26.8161C16.8008 26.8161 17.4828 26.5336 17.9857 26.0307C18.4886 25.5278 18.7712 24.8457 18.7712 24.1345C18.7712 23.4233 18.4886 22.7412 17.9857 22.2383C17.4828 21.7354 16.8008 21.4529 16.0896 21.4529C15.3784 21.4529 14.6963 21.7354 14.1934 22.2383C13.6905 22.7412 13.408 23.4233 13.408 24.1345Z" fill="#292929"/>
</svg>
